<svg xmlns="http://www.w3.org/2000/svg" xmlns:xlink="http://www.w3.org/1999/xlink" width="2000" zoomAndPan="magnify" viewBox="0 0 1500 1199.999942" height="1600" preserveAspectRatio="xMidYMid meet" version="1.0"><defs><g/><clipPath id="97eaaf7fbc"><path d="M 0.359375 193 L 1473 193 L 1473 887 L 0.359375 887 Z M 0.359375 193 " clip-rule="nonzero"/></clipPath><clipPath id="1602ed22d2"><path d="M 1336 682 L 1473 682 L 1473 821 L 1336 821 Z M 1336 682 " clip-rule="nonzero"/></clipPath><clipPath id="013a2558b2"><rect x="0" width="1473" y="0" height="1011"/></clipPath></defs><g transform="matrix(1, 0, 0, 1, 27, 94)"><g clip-path="url(#013a2558b2)"><g fill="#b026ff" fill-opacity="1"><g transform="translate(23.457574, 433.784329)"><g><path d="M 57.65625 0 C 49.5625 0 42.695312 -2.816406 37.0625 -8.453125 C 31.425781 -14.085938 28.609375 -20.953125 28.609375 -29.046875 L 28.609375 -317.796875 C 28.609375 -326.171875 31.425781 -333.101562 37.0625 -338.59375 C 42.695312 -344.09375 49.5625 -346.84375 57.65625 -346.84375 L 233.25 -346.84375 C 241.632812 -346.84375 248.570312 -343.953125 254.0625 -338.171875 C 259.550781 -332.390625 262.296875 -325.453125 262.296875 -317.359375 L 262.296875 -107.09375 C 262.296875 -99 265.039062 -92.203125 270.53125 -86.703125 C 276.019531 -81.210938 282.664062 -78.46875 290.46875 -78.46875 C 298.5625 -78.46875 305.351562 -81.210938 310.84375 -86.703125 C 316.34375 -92.203125 319.09375 -99 319.09375 -107.09375 L 319.09375 -317.796875 C 319.09375 -326.171875 321.910156 -333.101562 327.546875 -338.59375 C 333.179688 -344.09375 340.046875 -346.84375 348.140625 -346.84375 L 384.984375 -346.84375 C 393.367188 -346.84375 400.304688 -344.09375 405.796875 -338.59375 C 411.285156 -333.101562 414.03125 -326.171875 414.03125 -317.796875 L 414.03125 -29.046875 C 414.03125 -20.953125 411.285156 -14.085938 405.796875 -8.453125 C 400.304688 -2.816406 393.367188 0 384.984375 0 L 209.40625 0 C 201.3125 0 194.445312 -2.890625 188.8125 -8.671875 C 183.175781 -14.453125 180.359375 -21.390625 180.359375 -29.484375 L 180.359375 -240.1875 C 180.359375 -247.988281 177.609375 -254.632812 172.109375 -260.125 C 166.617188 -265.613281 159.828125 -268.359375 151.734375 -268.359375 C 143.929688 -268.359375 137.285156 -265.613281 131.796875 -260.125 C 126.304688 -254.632812 123.5625 -247.988281 123.5625 -240.1875 L 123.5625 -29.046875 C 123.5625 -20.953125 120.816406 -14.085938 115.328125 -8.453125 C 109.835938 -2.816406 102.898438 0 94.515625 0 Z M 57.65625 0 "/></g></g></g><g fill="#b026ff" fill-opacity="1"><g transform="translate(466.111067, 433.784329)"><g><path d="M 134.828125 0 C 114.304688 0 96.023438 -4.550781 79.984375 -13.65625 C 63.941406 -22.757812 51.367188 -35.332031 42.265625 -51.375 C 33.160156 -67.414062 28.609375 -85.695312 28.609375 -106.21875 L 28.609375 -240.625 C 28.609375 -261.144531 33.160156 -279.425781 42.265625 -295.46875 C 51.367188 -311.507812 63.941406 -324.082031 79.984375 -333.1875 C 96.023438 -342.289062 114.304688 -346.84375 134.828125 -346.84375 L 169.078125 -346.84375 C 189.597656 -346.84375 207.878906 -342.289062 223.921875 -333.1875 C 239.960938 -324.082031 252.535156 -311.507812 261.640625 -295.46875 C 270.742188 -279.425781 275.296875 -261.144531 275.296875 -240.625 L 275.296875 -106.21875 C 275.296875 -85.695312 270.742188 -67.414062 261.640625 -51.375 C 252.535156 -35.332031 239.960938 -22.757812 223.921875 -13.65625 C 207.878906 -4.550781 189.597656 0 169.078125 0 Z M 151.734375 -78.46875 C 159.828125 -78.46875 166.617188 -81.210938 172.109375 -86.703125 C 177.609375 -92.203125 180.359375 -99 180.359375 -107.09375 L 180.359375 -239.75 C 180.359375 -247.84375 177.609375 -254.632812 172.109375 -260.125 C 166.617188 -265.613281 159.828125 -268.359375 151.734375 -268.359375 C 143.929688 -268.359375 137.285156 -265.613281 131.796875 -260.125 C 126.304688 -254.632812 123.5625 -247.84375 123.5625 -239.75 L 123.5625 -107.09375 C 123.5625 -99 126.304688 -92.203125 131.796875 -86.703125 C 137.285156 -81.210938 143.929688 -78.46875 151.734375 -78.46875 Z M 151.734375 -78.46875 "/></g></g></g><g fill="#b026ff" fill-opacity="1"><g transform="translate(770.028879, 433.784329)"><g><path d="M 90.609375 0 C 84.535156 0 79.113281 -1.660156 74.34375 -4.984375 C 69.582031 -8.304688 66.332031 -12.859375 64.59375 -18.640625 L 33.8125 -120.53125 C 32.082031 -126.3125 30.78125 -131.945312 29.90625 -137.4375 C 29.039062 -142.925781 28.609375 -148.847656 28.609375 -155.203125 L 28.609375 -317.796875 C 28.609375 -326.171875 31.425781 -333.101562 37.0625 -338.59375 C 42.695312 -344.09375 49.5625 -346.84375 57.65625 -346.84375 L 94.515625 -346.84375 C 102.898438 -346.84375 109.835938 -344.09375 115.328125 -338.59375 C 120.816406 -333.101562 123.5625 -326.171875 123.5625 -317.796875 L 123.5625 -115.328125 C 123.5625 -107.234375 126.304688 -100.4375 131.796875 -94.9375 C 137.285156 -89.445312 143.929688 -86.703125 151.734375 -86.703125 C 159.828125 -86.703125 166.617188 -89.445312 172.109375 -94.9375 C 177.609375 -100.4375 180.359375 -107.234375 180.359375 -115.328125 L 180.359375 -317.796875 C 180.359375 -326.171875 183.175781 -333.101562 188.8125 -338.59375 C 194.445312 -344.09375 201.3125 -346.84375 209.40625 -346.84375 L 246.25 -346.84375 C 254.632812 -346.84375 261.570312 -344.09375 267.0625 -338.59375 C 272.550781 -333.101562 275.296875 -326.171875 275.296875 -317.796875 L 275.296875 -155.203125 C 275.296875 -148.847656 274.863281 -142.925781 274 -137.4375 C 273.132812 -131.945312 271.832031 -126.3125 270.09375 -120.53125 L 239.3125 -18.640625 C 237.582031 -12.859375 234.332031 -8.304688 229.5625 -4.984375 C 224.789062 -1.660156 219.375 0 213.3125 0 Z M 90.609375 0 "/></g></g></g><g fill="#b026ff" fill-opacity="1"><g transform="translate(1073.946752, 433.784329)"><g><path d="M 57.65625 0 C 49.5625 0 42.695312 -2.816406 37.0625 -8.453125 C 31.425781 -14.085938 28.609375 -20.953125 28.609375 -29.046875 L 28.609375 -240.625 C 28.609375 -261.144531 33.160156 -279.425781 42.265625 -295.46875 C 51.367188 -311.507812 63.941406 -324.082031 79.984375 -333.1875 C 96.023438 -342.289062 114.304688 -346.84375 134.828125 -346.84375 L 169.078125 -346.84375 C 189.597656 -346.84375 207.878906 -342.289062 223.921875 -333.1875 C 239.960938 -324.082031 252.535156 -311.507812 261.640625 -295.46875 C 270.742188 -279.425781 275.296875 -261.144531 275.296875 -240.625 L 275.296875 -29.046875 C 275.296875 -20.953125 272.550781 -14.085938 267.0625 -8.453125 C 261.570312 -2.816406 254.632812 0 246.25 0 L 209.40625 0 C 201.3125 0 194.445312 -2.816406 188.8125 -8.453125 C 183.175781 -14.085938 180.359375 -20.953125 180.359375 -29.046875 L 180.359375 -80.640625 C 180.359375 -88.441406 177.609375 -95.085938 172.109375 -100.578125 C 166.617188 -106.066406 159.828125 -108.8125 151.734375 -108.8125 C 143.929688 -108.8125 137.285156 -106.066406 131.796875 -100.578125 C 126.304688 -95.085938 123.5625 -88.296875 123.5625 -80.203125 L 123.5625 -29.046875 C 123.5625 -20.953125 120.816406 -14.085938 115.328125 -8.453125 C 109.835938 -2.816406 102.898438 0 94.515625 0 Z M 151.734375 -166.046875 C 159.828125 -166.046875 166.617188 -168.789062 172.109375 -174.28125 C 177.609375 -179.769531 180.359375 -186.421875 180.359375 -194.234375 L 180.359375 -239.75 C 180.359375 -247.84375 177.609375 -254.632812 172.109375 -260.125 C 166.617188 -265.613281 159.828125 -268.359375 151.734375 -268.359375 C 143.929688 -268.359375 137.285156 -265.613281 131.796875 -260.125 C 126.304688 -254.632812 123.5625 -247.84375 123.5625 -239.75 L 123.5625 -194.234375 C 123.5625 -186.421875 126.304688 -179.769531 131.796875 -174.28125 C 137.285156 -168.789062 143.929688 -166.046875 151.734375 -166.046875 Z M 151.734375 -166.046875 "/></g></g></g><g fill="#b026ff" fill-opacity="1"><g transform="translate(27.577487, 923.371003)"><g><path d="M 57.65625 0 C 49.5625 0 42.695312 -2.816406 37.0625 -8.453125 C 31.425781 -14.085938 28.609375 -20.953125 28.609375 -29.046875 L 28.609375 -317.796875 C 28.609375 -326.171875 31.425781 -333.101562 37.0625 -338.59375 C 42.695312 -344.09375 49.5625 -346.84375 57.65625 -346.84375 L 169.078125 -346.84375 C 189.597656 -346.84375 207.878906 -342.289062 223.921875 -333.1875 C 239.960938 -324.082031 252.535156 -311.507812 261.640625 -295.46875 C 270.742188 -279.425781 275.296875 -261.144531 275.296875 -240.625 L 275.296875 -106.21875 C 275.296875 -85.695312 270.742188 -67.414062 261.640625 -51.375 C 252.535156 -35.332031 239.960938 -22.757812 223.921875 -13.65625 C 207.878906 -4.550781 189.597656 0 169.078125 0 Z M 151.734375 -78.46875 C 159.828125 -78.46875 166.617188 -81.210938 172.109375 -86.703125 C 177.609375 -92.203125 180.359375 -99 180.359375 -107.09375 L 180.359375 -239.75 C 180.359375 -247.84375 177.609375 -254.632812 172.109375 -260.125 C 166.617188 -265.613281 159.828125 -268.359375 151.734375 -268.359375 C 143.929688 -268.359375 137.285156 -265.613281 131.796875 -260.125 C 126.304688 -254.632812 123.5625 -247.84375 123.5625 -239.75 L 123.5625 -107.09375 C 123.5625 -99 126.304688 -92.203125 131.796875 -86.703125 C 137.285156 -81.210938 143.929688 -78.46875 151.734375 -78.46875 Z M 151.734375 -78.46875 "/></g></g></g><g fill="#b026ff" fill-opacity="1"><g transform="translate(331.4953, 923.371003)"><g><path d="M 57.65625 0 C 49.5625 0 42.695312 -2.816406 37.0625 -8.453125 C 31.425781 -14.085938 28.609375 -20.953125 28.609375 -29.046875 L 28.609375 -317.796875 C 28.609375 -326.171875 31.425781 -333.101562 37.0625 -338.59375 C 42.695312 -344.09375 49.5625 -346.84375 57.65625 -346.84375 L 311.71875 -346.84375 C 320.101562 -346.84375 327.039062 -344.09375 332.53125 -338.59375 C 338.019531 -333.101562 340.765625 -326.171875 340.765625 -317.796875 L 340.765625 -297.40625 C 340.765625 -289.320312 338.019531 -282.457031 332.53125 -276.8125 C 327.039062 -271.175781 320.101562 -268.359375 311.71875 -268.359375 L 151.734375 -268.359375 C 143.929688 -268.359375 137.285156 -265.613281 131.796875 -260.125 C 126.304688 -254.632812 123.5625 -247.84375 123.5625 -239.75 C 123.5625 -231.945312 126.304688 -225.300781 131.796875 -219.8125 C 137.285156 -214.320312 143.929688 -211.578125 151.734375 -211.578125 L 294.375 -211.578125 C 302.757812 -211.578125 309.695312 -208.828125 315.1875 -203.328125 C 320.675781 -197.835938 323.421875 -190.898438 323.421875 -182.515625 L 323.421875 -165.1875 C 323.421875 -156.800781 320.601562 -149.789062 314.96875 -144.15625 C 309.332031 -138.519531 302.46875 -135.703125 294.375 -135.703125 L 151.734375 -135.703125 C 143.929688 -135.703125 137.285156 -132.882812 131.796875 -127.25 C 126.304688 -121.613281 123.5625 -114.894531 123.5625 -107.09375 C 123.5625 -99 126.304688 -92.203125 131.796875 -86.703125 C 137.285156 -81.210938 143.929688 -78.46875 151.734375 -78.46875 L 311.71875 -78.46875 C 320.101562 -78.46875 327.039062 -75.722656 332.53125 -70.234375 C 338.019531 -64.742188 340.765625 -57.804688 340.765625 -49.421875 L 340.765625 -29.046875 C 340.765625 -20.953125 338.019531 -14.085938 332.53125 -8.453125 C 327.039062 -2.816406 320.101562 0 311.71875 0 Z M 57.65625 0 "/></g></g></g><g fill="#b026ff" fill-opacity="1"><g transform="translate(700.87902, 923.371003)"><g><path d="M 134.828125 0 C 114.304688 0 96.023438 -4.550781 79.984375 -13.65625 C 63.941406 -22.757812 51.367188 -35.332031 42.265625 -51.375 C 33.160156 -67.414062 28.609375 -85.695312 28.609375 -106.21875 L 28.609375 -240.625 C 28.609375 -261.144531 33.160156 -279.425781 42.265625 -295.46875 C 51.367188 -311.507812 63.941406 -324.082031 79.984375 -333.1875 C 96.023438 -342.289062 114.304688 -346.84375 134.828125 -346.84375 L 311.28125 -346.84375 C 319.664062 -346.84375 326.601562 -344.09375 332.09375 -338.59375 C 337.582031 -333.101562 340.328125 -326.171875 340.328125 -317.796875 L 340.328125 -296.984375 C 340.328125 -288.890625 337.507812 -282.09375 331.875 -276.59375 C 326.238281 -271.101562 319.375 -268.359375 311.28125 -268.359375 L 151.734375 -268.359375 C 143.929688 -268.359375 137.285156 -265.613281 131.796875 -260.125 C 126.304688 -254.632812 123.5625 -247.84375 123.5625 -239.75 L 123.5625 -107.09375 C 123.5625 -99 126.304688 -92.203125 131.796875 -86.703125 C 137.285156 -81.210938 143.929688 -78.46875 151.734375 -78.46875 L 311.28125 -78.46875 C 319.664062 -78.46875 326.601562 -75.722656 332.09375 -70.234375 C 337.582031 -64.742188 340.328125 -57.804688 340.328125 -49.421875 L 340.328125 -29.046875 C 340.328125 -20.953125 337.582031 -14.085938 332.09375 -8.453125 C 326.601562 -2.816406 319.664062 0 311.28125 0 Z M 134.828125 0 "/></g></g></g><g fill="#b026ff" fill-opacity="1"><g transform="translate(1069.829301, 923.371003)"><g><path d="M 57.65625 0 C 49.5625 0 42.695312 -2.816406 37.0625 -8.453125 C 31.425781 -14.085938 28.609375 -20.953125 28.609375 -29.046875 L 28.609375 -317.796875 C 28.609375 -326.171875 31.425781 -333.101562 37.0625 -338.59375 C 42.695312 -344.09375 49.5625 -346.84375 57.65625 -346.84375 L 94.515625 -346.84375 C 102.898438 -346.84375 109.835938 -344.09375 115.328125 -338.59375 C 120.816406 -333.101562 123.5625 -326.171875 123.5625 -317.796875 L 123.5625 -239.75 C 123.5625 -231.945312 126.304688 -225.300781 131.796875 -219.8125 C 137.285156 -214.320312 143.929688 -211.578125 151.734375 -211.578125 C 159.828125 -211.578125 166.617188 -214.320312 172.109375 -219.8125 C 177.609375 -225.300781 180.359375 -231.945312 180.359375 -239.75 L 180.359375 -317.796875 C 180.359375 -326.171875 183.175781 -333.101562 188.8125 -338.59375 C 194.445312 -344.09375 201.3125 -346.84375 209.40625 -346.84375 L 246.25 -346.84375 C 254.632812 -346.84375 261.570312 -344.09375 267.0625 -338.59375 C 272.550781 -333.101562 275.296875 -326.171875 275.296875 -317.796875 L 275.296875 -264.890625 C 275.296875 -255.066406 272.695312 -246.109375 267.5 -238.015625 L 236.28125 -188.59375 C 229.925781 -178.476562 229.925781 -168.363281 236.28125 -158.25 L 267.5 -108.8125 C 272.695312 -100.726562 275.296875 -91.769531 275.296875 -81.9375 L 275.296875 -29.046875 C 275.296875 -20.953125 272.550781 -14.085938 267.0625 -8.453125 C 261.570312 -2.816406 254.632812 0 246.25 0 L 209.40625 0 C 201.3125 0 194.445312 -2.816406 188.8125 -8.453125 C 183.175781 -14.085938 180.359375 -20.953125 180.359375 -29.046875 L 180.359375 -107.09375 C 180.359375 -114.894531 177.609375 -121.613281 172.109375 -127.25 C 166.617188 -132.882812 159.828125 -135.703125 151.734375 -135.703125 C 143.929688 -135.703125 137.285156 -132.953125 131.796875 -127.453125 C 126.304688 -121.960938 123.5625 -115.175781 123.5625 -107.09375 L 123.5625 -29.046875 C 123.5625 -20.953125 120.816406 -14.085938 115.328125 -8.453125 C 109.835938 -2.816406 102.898438 0 94.515625 0 Z M 57.65625 0 "/></g></g></g><g clip-path="url(#97eaaf7fbc)"><path stroke-linecap="butt" transform="matrix(1.012186, 0, 0, 1.012186, 52.054651, 371.000114)" fill="none" stroke-linejoin="miter" d="M 1336.988439 316.579476 L 1336.988439 161.006573 C 1336.988439 144.438939 1323.554491 131.004992 1306.986857 131.004992 L 47.001484 131.004992 C 30.429991 131.004992 16.999903 117.574904 16.999903 101.00727 L 16.999903 30.371954 C 16.999903 26.825331 18.408518 23.425357 20.917012 20.916864 C 23.425505 18.40837 26.825479 16.999755 30.372102 16.999755 L 43.744302 16.999755 " stroke="#b026ff" stroke-width="34" stroke-opacity="1" stroke-miterlimit="4"/></g><g clip-path="url(#1602ed22d2)"><path stroke-linecap="round" transform="matrix(1.012186, 0, 0, 1.012186, 52.054651, 371.000114)" fill="none" stroke-linejoin="round" d="M 1336.988439 427.076682 C 1308.819987 427.076682 1285.988838 404.245533 1285.988838 376.077081 C 1285.988838 347.912489 1308.819987 325.07748 1336.988439 325.07748 C 1365.153031 325.07748 1387.98804 347.912489 1387.98804 376.077081 C 1387.98804 404.245533 1365.153031 427.076682 1336.988439 427.076682 " stroke="#b026ff" stroke-width="34" stroke-opacity="1" stroke-miterlimit="4"/></g></g></g></svg>